<svg width="48" height="48" viewBox="0 0 48 48" fill="none" xmlns="http://www.w3.org/2000/svg">
<path d="M43.112 14.394C42.8841 13.5473 42.4378 12.7753 41.8178 12.1552C41.1978 11.5352 40.4257 11.0889 39.579 10.861C37.265 9.967 14.847 9.529 8.343 10.886C7.49615 11.114 6.72405 11.5604 6.104 12.1806C5.48396 12.8009 5.03773 13.5731 4.81 14.42C3.765 19.003 3.686 28.911 4.836 33.597C5.06388 34.4437 5.51018 35.2158 6.13021 35.8358C6.75025 36.4558 7.52227 36.9021 8.369 37.13C12.952 38.185 34.74 38.333 39.605 37.13C40.4517 36.9021 41.2238 36.4558 41.8438 35.8358C42.4638 35.2158 42.9101 34.4437 43.138 33.597C44.252 28.604 44.331 19.31 43.112 14.394V14.394Z" stroke="white" stroke-linecap="round" stroke-linejoin="round"/>
<path d="M30.567 23.995L20.12 18.004V29.986L30.567 23.995Z" stroke="white" stroke-linecap="round" stroke-linejoin="round"/>
</svg>
